<?xml version="1.0" standalone="no"?>
<!DOCTYPE svg PUBLIC "-//W3C//DTD SVG 1.1//EN" "http://www.w3.org/Graphics/SVG/1.1/DTD/svg11.dtd" >
<svg xmlns="http://www.w3.org/2000/svg">
<defs>
  <font id="MyIcons" horiz-adv-x="1000">
    <font-face font-family="MyIcons"
      units-per-em="1000" ascent="1000"
      descent="0" />
    <missing-glyph horiz-adv-x="0" />
    <glyph glyph-name="add-plus-svgrepo-com"
      unicode="&#xEA01;"
      horiz-adv-x="1000" d="M250 500H500M500 500H750M500 500V250M500 500V750" />
    <glyph glyph-name="blockquote-toggle"
      unicode="&#xEA02;"
      horiz-adv-x="1000" d="M333.3333333333333 750L166.6666666666667 583.3333333333334V250H208.3333333333333L333.3333333333333 375V83.3333333333334H416.6666666666667V375L541.6666666666666 250H583.3333333333333V583.3333333333334L416.6666666666667 750H333.3333333333333zM250 708.3333333333334H666.6666666666666V625H250V708.3333333333334zM333.3333333333333 541.6666666666667H666.6666666666666V458.3333333333334H333.3333333333333V541.6666666666667zM416.6666666666667 375H666.6666666666666V291.6666666666668H416.6666666666667V375z" />
    <glyph glyph-name="blockquote"
      unicode="&#xEA03;"
      horiz-adv-x="1000" d="M250 708.3333333333334H750V625H250V708.3333333333334zM375 541.6666666666667H750V458.3333333333334H375V541.6666666666667zM375 375H750V291.6666666666668H375V375zM375 208.3333333333334H750V125H375V208.3333333333334zM125 708.3333333333334V125L250 208.3333333333334V708.3333333333334L125 708.3333333333334z" />
    <glyph glyph-name="break-line"
      unicode="&#xEA04;"
      horiz-adv-x="1000" d="M125 708.3333333333334H875V625H125V708.3333333333334zM125 375H875V291.6666666666668H125V375zM500 500L375 625M500 500L625 625M500 500V250" />
    <glyph glyph-name="code-block"
      unicode="&#xEA05;"
      horiz-adv-x="1000" d="M250 666.6666666666667H333.3333333333333V583.3333333333334H250V666.6666666666667zM416.6666666666667 666.6666666666667H750V583.3333333333334H416.6666666666667V666.6666666666667zM250 500H333.3333333333333V416.6666666666668H250V500zM416.6666666666667 500H750V416.6666666666668H416.6666666666667V500zM250 333.3333333333334H333.3333333333333V250H250V333.3333333333334zM416.6666666666667 333.3333333333334H583.3333333333333V250H416.6666666666667V333.3333333333334z" />
    <glyph glyph-name="code-inline"
      unicode="&#xEA06;"
      horiz-adv-x="1000" d="M250 541.6666666666667H333.3333333333333V458.3333333333334H250V541.6666666666667zM416.6666666666667 541.6666666666667H750V458.3333333333334H416.6666666666667V541.6666666666667z" />
    <glyph glyph-name="fmt-bold"
      unicode="&#xEA07;"
      horiz-adv-x="1000" d="M250 833.3333333333334V166.6666666666668H466.6666666666666C525 166.6666666666668 574.9999999999999 179.1666666666668 616.6666666666666 200.0000000000001S691.6666666666665 250 712.4999999999999 287.5000000000001C733.3333333333333 325.0000000000001 745.8333333333333 366.6666666666669 745.8333333333333 416.6666666666668C745.8333333333333 466.6666666666667 733.3333333333333 508.3333333333335 712.4999999999999 545.8333333333335S658.3333333333331 612.5 616.6666666666665 633.3333333333334C574.9999999999999 654.1666666666667 524.9999999999999 666.6666666666667 466.6666666666665 666.6666666666667H250zM375 750H466.6666666666666C500 750 525 741.6666666666667 545.8333333333333 729.1666666666667S574.9999999999999 695.8333333333334 574.9999999999999 666.6666666666667C574.9999999999999 637.5 566.6666666666666 616.6666666666667 545.8333333333333 604.1666666666667S500 583.3333333333334 466.6666666666666 583.3333333333334H375V750zM375 500H491.6666666666667C529.1666666666666 500 558.3333333333334 491.6666666666667 579.1666666666666 475S612.5 437.5 612.5 408.3333333333334C612.5 379.1666666666668 600 358.3333333333335 579.1666666666666 341.6666666666668S529.1666666666666 316.6666666666668 491.6666666666667 316.6666666666668H375V500.0000000000001z" />
    <glyph glyph-name="fmt-italic"
      unicode="&#xEA08;"
      horiz-adv-x="1000" d="M291.6666666666667 833.3333333333334V166.6666666666668H416.6666666666667V833.3333333333334H291.6666666666667zM416.6666666666667 833.3333333333334L708.3333333333333 166.6666666666668H833.3333333333333L541.6666666666666 833.3333333333334H416.6666666666667z" />
    <glyph glyph-name="fmt-strike"
      unicode="&#xEA09;"
      horiz-adv-x="1000" d="M125 500H875V416.6666666666668H125V500zM187.5 750H812.5V666.6666666666667H187.5V750zM187.5 250H812.5V166.6666666666668H187.5V250z" />
    <glyph glyph-name="font - heading toggle"
      unicode="&#xEA0A;"
      horiz-adv-x="1000" d="M0 472.4895713397497L548.3333333333333 472.4895713397497L548.3333333333333 241.6145657987496L0 241.6145657987496zM0 472.4895713397497M46 472.4895713397497L502.135416 472.4895713397497C527.5416666666666 472.4895713397497 548.135416 451.8958215121663 548.135416 426.4895702357496L548.135416 287.6145669027497C548.135416 262.208315626333 527.5416666666666 241.6145657987496 502.135416 241.6145657987496L46 241.6145657987496C20.5937493333333 241.6145657987496 0 262.208315626333 0 287.6145669027497L0 426.4895702357496C0 451.8958215121663 20.5937493333333 472.4895713397497 46 472.4895713397497zM46 472.4895713397497M0 997.8229172810834L548.3333333333333 997.8229172810834L548.3333333333333 766.9479117400832L0 766.9479117400832zM0 997.8229172810834M46 997.8229172810834L502.135416 997.8229172810834C527.5416666666666 997.8229172810834 548.135416 977.2291674535 548.135416 951.8229161770834L548.135416 812.9479128440832C548.135416 787.5416615676666 527.5416666666666 766.9479117400832 502.135416 766.9479117400832L46 766.9479117400832C20.5937493333333 766.9479117400832 0 787.5416615676666 0 812.9479128440832L0 951.8229161770834C0 977.2291674535 20.5937493333333 997.8229172810834 46 997.8229172810834zM46 997.8229172810834M0 1000H549.3333333333333V765.3333277013332H0V1000zM45.520832 622.6874896111665L577.5208319999999 622.6874896111665L577.5208319999999 90.6874768431661L45.520832 90.6874768431661zM45.520832 622.6874896111665M45.520832 560.6874881231663L45.520832 153.4166463486662C45.520832 119.1770615269161 73.2812506666667 91.4166448606661 107.520832 91.4166448606661L514.7916666666666 91.4166448606661C549.0312506666667 91.4166448606661 576.7916666666666 119.1770615269161 576.7916666666666 153.4166463486662L576.7916666666666 560.6874881231663C576.7916666666666 594.9270729449164 549.0312506666667 622.6874896111665 514.7916666666666 622.6874896111665L107.520832 622.6874896111665C73.2812506666667 622.6874896111665 45.520832 594.9270729449164 45.520832 560.6874881231663zM45.520832 560.6874881231663M42.6666666666667 845.3333296213332L488 845.3333296213332L488 621.3333242453332L42.6666666666667 621.3333242453332zM42.6666666666667 845.3333296213332M0.1875 936.6874971471666L0.1875 529.4166553726664C0.1875 495.1770705509164 27.9479173333333 467.4166538846664 62.1874986666667 467.4166538846664L469.4583333333333 467.4166538846664C503.6979173333333 467.4166538846664 531.4583333333333 495.1770705509164 531.4583333333333 529.4166553726664L531.4583333333333 936.6874971471666C531.4583333333333 970.9270819689166 503.6979173333333 998.6874986351665 469.4583333333333 998.6874986351665L62.1874986666667 998.6874986351665C27.9479173333333 998.6874986351665 0.1875 970.9270819689166 0.1875 936.6874971471666zM0.1875 936.6874971471666M0 1000H533.3333333333333V466.6666538666664H0V1000zM0 472.4895713397498L548.3333333333333 472.4895713397498L548.3333333333333 241.6145657987496L0 241.6145657987496zM0 472.4895713397498M421.6041653333333 313.1041488478329C420.1458346666667 313.1041488478329 418.6979173333333 313.1770661829162 417.260416 313.322900853083C415.8125013333333 313.4583168563329 414.375 313.6770661949163 412.9583333333333 313.958316868333C411.5312506666666 314.2395675417496 410.125 314.5937328835829 408.729168 315.0208155604996C407.3437493333333 315.4374822371663 405.979168 315.9270662489162 404.635416 316.4791515954996C403.2916666666667 317.0416502756663 401.979168 317.6562342904163 400.7083333333333 318.343732973583C399.4270826666667 319.0312343234163 398.1770826666667 319.7708156744996 396.9687493333333 320.5833170273329C395.760416 321.3853997132497 394.6041653333333 322.2499837339996 393.479168 323.1666504226662C392.3541653333333 324.0937331115829 391.2812506666666 325.062485134833 390.25 326.0937331595829C389.229168 327.1145678507496 388.25 328.197901210083 387.3333333333333 329.3124852368331C386.4062506666666 330.4374825971663 385.5520826666667 331.6041492918329 384.739584 332.812485320833C383.9374986666666 334.0208160164996 383.1874986666666 335.2604000462495 382.5 336.5416507436662C381.8229173333333 337.8229014410829 381.1979173333333 339.1354001392496 380.6458346666667 340.4791521714997C380.0833333333333 341.8124855368331 379.6041653333333 343.1770669029163 379.1770826666667 344.572901603083C378.760416 345.958317636333 378.4062506666666 347.3645683367497 378.125 348.7916510376663C377.8333333333333 350.2187337385829 377.625 351.6458191061663 377.479168 353.0937338075829C377.3437493333333 354.5416511756663 377.270832 355.9895685437496 377.270832 357.4374832451663C377.270832 358.8958192801663 377.3437493333333 360.343733981583 377.479168 361.7812353494163C377.625 363.2291527174996 377.8333333333333 364.6666514186664 378.125 366.0937341195829C378.4062506666666 367.5104008202495 378.760416 368.9166515206663 379.1770826666667 370.312486220833C379.6041653333333 371.6979022540829 380.0833333333333 373.062486286833 380.6458346666667 374.4062356524163C381.1979173333333 375.7499850179996 381.8229173333333 377.062486382833 382.5 378.343734413583C383.1874986666666 379.6145691107497 383.9374986666666 380.8645691407496 384.739584 382.072902503083C385.5520826666667 383.2812358654163 386.4062506666666 384.4374838931663 387.3333333333333 385.562486586833C388.25 386.6874839471663 389.229168 387.7604013062496 390.25 388.7916519976664C391.2812506666666 389.812486688833 392.3541653333333 390.7916520456663 393.479168 391.7083187343329C394.6041653333333 392.6354014232496 395.760416 393.4999854439997 396.9687493333333 394.3020681299163C398.1770826666667 395.1041508158329 399.4270826666667 395.854150833833 400.7083333333333 396.5416521836663C401.979168 397.218734866583 403.2916666666667 397.8437348815829 404.635416 398.3958202281663C405.979168 398.958318908333 407.3437493333333 399.4479029200829 408.729168 399.8645695967497C410.125 400.2812362734163 411.5312506666666 400.6354016152497 412.9583333333333 400.9166522886663C414.375 401.2083189623329 415.8125013333333 401.4166523006664 417.260416 401.562486970833C418.6979173333333 401.6979029740831 420.1458346666667 401.7708176424997 421.6041653333333 401.7708176424997C423.0520826666667 401.7708176424997 424.5 401.6979029740831 425.9479173333333 401.562486970833C427.3958346666667 401.4166523006664 428.8229173333333 401.2083189623329 430.25 400.9166522886663C431.6770826666667 400.6354016152497 433.0833333333333 400.2812362734163 434.4687493333333 399.8645695967497C435.864584 399.4479029200829 437.229168 398.958318908333 438.5729173333333 398.3958202281663C439.9062506666666 397.8437348815829 441.2187493333333 397.218734866583 442.5 396.5416521836663C443.7812506666666 395.854150833833 445.020832 395.1041508158329 446.229168 394.3020681299163C447.4374986666666 393.4999854439997 448.6041653333333 392.6354014232496 449.729168 391.7083187343329C450.8541653333333 390.7916520456663 451.9270826666666 389.812486688833 452.9479173333333 388.7916519976664C453.979168 387.7604013062496 454.9479173333333 386.6874839471663 455.8749999999999 385.562486586833C456.7916666666666 384.4374838931663 457.6562506666666 383.2812358654163 458.4687493333333 382.072902503083C459.270832 380.8645691407496 460.020832 379.6145691107497 460.6979173333333 378.343734413583C461.385416 377.062486382833 462.010416 375.7499850179996 462.5625013333333 374.4062356524163C463.114584 373.062486286833 463.6041653333333 371.6979022540829 464.0312506666666 370.312486220833C464.4479173333333 368.9166515206663 464.8020826666666 367.5104008202495 465.0833333333333 366.0937341195829C465.364584 364.6666514186664 465.5833333333333 363.2291527174996 465.7187493333333 361.7812353494163C465.864584 360.343733981583 465.9374986666666 358.8958192801663 465.9374986666666 357.4374832451663C465.9374986666666 355.9895685437496 465.864584 354.5416511756663 465.7187493333333 353.0937338075829C465.5833333333333 351.6458191061663 465.364584 350.2187337385829 465.0833333333333 348.7916510376663C464.8020826666666 347.3645683367497 464.4479173333333 345.958317636333 464.0312506666666 344.572901603083C463.6041653333333 343.1770669029163 463.114584 341.8124855368331 462.5625013333333 340.4791521714997C462.010416 339.1354001392496 461.385416 337.8229014410829 460.6979173333333 336.5416507436662C460.020832 335.2604000462495 459.270832 334.0208160164996 458.4687493333333 332.812485320833C457.6562506666666 331.6041492918329 456.7916666666666 330.4374825971663 455.8749999999999 329.3124852368331C454.9479173333333 328.197901210083 453.979168 327.1145678507496 452.9479173333333 326.0937331595829C451.9270826666666 325.062485134833 450.8541653333333 324.0937331115829 449.729168 323.1666504226662C448.6041653333333 322.2499837339996 447.4374986666666 321.3853997132497 446.229168 320.5833170273329C445.020832 319.7708156744996 443.7812506666666 319.0312343234163 442.5 318.343732973583C441.2187493333333 317.6562342904163 439.9062506666666 317.0416502756663 438.5729173333333 316.4791515954996C437.229168 315.9270662489162 435.864584 315.4374822371663 434.4687493333333 315.0208155604996C433.0833333333333 314.5937328835829 431.6770826666667 314.2395675417496 430.25 313.958316868333C428.8229173333333 313.6770661949163 427.3958346666667 313.4583168563329 425.9479173333333 313.322900853083C424.5 313.1770661829162 423.0520826666667 313.1041488478329 421.6041653333333 313.1041488478329M199.9374986666667 246.6041472518329C196.3020826666667 246.6041472518329 192.6874986666667 246.7812325894163 189.0729173333333 247.1353979312496C185.4583333333333 247.4999819399996 181.875 248.0312326194162 178.3125013333333 248.7395659697495C174.75 249.4478993200829 171.239584 250.3228993410829 167.760416 251.3749820329995C164.2916666666667 252.4374807251661 160.875 253.6562327544163 157.520832 255.0416487876662C154.1666666666667 256.4374808211662 150.885416 257.9791501914996 147.6874986666667 259.6978995660829C144.489584 261.4062329404162 141.375 263.2708143184996 138.364584 265.2812330334163C135.3437493333333 267.3020650819163 132.4270826666667 269.4583158003329 129.625 271.7603985222495C126.8229173333333 274.062483910833 124.135416 276.4999826359996 121.5625013333333 279.0729000310829C119 281.6353987592495 116.5625013333333 284.322900157083 114.260416 287.1249828909995C111.9583333333333 289.9374816251662 109.8020826666667 292.8437323615829 107.7812506666667 295.8645671007496C105.760416 298.8853991732496 103.8958346666667 301.9895672477496 102.1874986666667 305.197900658083C100.479168 308.3958180681663 98.9270826666667 311.6770661469162 97.5416666666667 315.0312342274163C96.1458346666667 318.3749836409995 94.9270826666667 321.7916503896663 93.875 325.2708158064995C92.8229173333333 328.7395678897497 91.9374986666667 332.2603999742496 91.229168 335.812485392833C90.520832 339.3749841449997 89.989584 342.9687335645829 89.635416 346.572901651083C89.2812506666667 350.1874830711663 89.1041653333333 353.812485824833 89.1041653333333 357.4374832451663C89.1041653333333 361.0729019990829 89.2812506666667 364.6874834191663 89.635416 368.3020675059163C89.989584 371.9166515926663 90.520832 375.4999850119996 91.229168 379.062486430833C91.9374986666667 382.6249851829996 92.8229173333333 386.1354012672496 93.875 389.6145693507497C94.9270826666667 393.0833187673329 96.1458346666667 396.4999855159997 97.5416666666667 399.854150929833C98.9270826666667 403.208319010333 100.479168 406.4895697557497 102.1874986666667 409.6874844991663C103.8958346666667 412.8854019092496 105.760416 415.9999859839997 107.7812506666667 419.0208180564996C109.8020826666667 422.0312367954164 111.9583333333333 424.9479035320831 114.260416 427.7499862659996C116.5625013333333 430.562487666833 119 433.2395703977498 121.5625013333333 435.8124877928331C124.135416 438.3749865209997 126.8229173333333 440.8124879128331 129.625 443.1145706347498C132.4270826666667 445.4166533566663 135.3437493333333 447.572904075083 138.364584 449.593736123583C141.375 451.6145708387496 144.489584 453.4791548834996 147.6874986666667 455.1874855911663C150.885416 456.8958216321664 154.1666666666667 458.447904336083 157.520832 459.833320369333C160.875 461.2291550694997 164.2916666666667 462.4479044320831 167.760416 463.4999871239996C171.239584 464.5520698159163 174.75 465.4374858371664 178.3125013333333 466.1458218541663C181.875 466.854152537833 185.4583333333333 467.3854032172496 189.0729173333333 467.7395712257497C192.6874986666667 468.0937365675829 196.3020826666667 468.2708192384996 199.9374986666667 468.2708192384996L421.6041653333333 468.2708192384996C425.229168 468.2708192384996 428.8541653333333 468.0937365675829 432.4687493333333 467.7395712257497C436.0833333333333 467.3854032172496 439.6666666666667 466.854152537833 443.229168 466.1458218541663C446.7812506666666 465.4374858371664 450.3020826666667 464.5520698159163 453.770832 463.4999871239996C457.2499999999999 462.4479044320831 460.6666666666666 461.2291550694997 464.020832 459.833320369333C467.3749999999999 458.447904336083 470.6458346666666 456.8958216321664 473.8437493333333 455.1874855911663C477.0520826666666 453.4791548834996 480.1562506666666 451.6145708387496 483.1770826666666 449.593736123583C486.1979173333333 447.572904075083 489.1041653333333 445.4166533566663 491.9166666666666 443.1145706347498C494.7187493333333 440.8124879128331 497.4062506666666 438.3749865209997 499.9687493333333 435.8124877928331C502.5416666666666 433.2395703977498 504.979168 430.562487666833 507.2812506666666 427.7499862659996C509.5833333333333 424.9479035320831 511.739584 422.0312367954164 513.760416 419.0208180564996C515.770832 415.9999859839997 517.635416 412.8854019092496 519.3437493333333 409.6874844991663C521.0625013333333 406.4895697557497 522.614584 403.208319010333 524 399.854150929833C525.385416 396.4999855159997 526.614584 393.0833187673329 527.6666666666666 389.6145693507497C528.7187493333333 386.1354012672496 529.5937493333333 382.6249851829996 530.3020826666667 379.062486430833C531.010416 375.4999850119996 531.5416666666666 371.9166515926663 531.9062506666667 368.3020675059163C532.260416 364.6874834191663 532.4374986666667 361.0729019990829 532.4374986666667 357.4374832451663C532.4374986666667 353.812485824833 532.260416 350.1874830711663 531.9062506666667 346.572901651083C531.5416666666666 342.9687335645829 531.010416 339.3749841449997 530.3020826666667 335.812485392833C529.5937493333333 332.2603999742496 528.7187493333333 328.7395678897497 527.6666666666666 325.2708158064995C526.614584 321.7916503896663 525.385416 318.3749836409995 524 315.0312342274163C522.614584 311.6770661469162 521.0625013333333 308.3958180681663 519.3437493333333 305.197900658083C517.635416 301.9895672477496 515.770832 298.8853991732496 513.760416 295.8645671007496C511.739584 292.8437323615829 509.5833333333333 289.9374816251662 507.2812506666666 287.1249828909995C504.979168 284.322900157083 502.5416666666666 281.6353987592495 499.9687493333333 279.0729000310829C497.4062506666666 276.4999826359996 494.7187493333333 274.062483910833 491.9166666666666 271.7603985222495C489.1041653333333 269.4583158003329 486.1979173333333 267.3020650819163 483.1770826666666 265.2812330334163C480.1562506666666 263.2708143184996 477.0520826666666 261.4062329404162 473.8437493333333 259.6978995660829C470.6458346666666 257.9791501914996 467.3749999999999 256.4374808211662 464.020832 255.0416487876662C460.6666666666666 253.6562327544163 457.2499999999999 252.4374807251661 453.770832 251.3749820329995C450.3020826666667 250.3228993410829 446.7812506666666 249.4478993200829 443.229168 248.7395659697495C439.6666666666667 248.0312326194162 436.0833333333333 247.4999819399996 432.4687493333333 247.1353979312496C428.8541653333333 246.7812325894163 425.229168 246.6041472518329 421.6041653333333 246.6041472518329L199.9374986666667 246.6041472518329M421.6041653333333 290.9374816491662C423.7812506666666 290.9374816491662 425.9479173333333 291.0520656519162 428.125 291.2603989902496C430.2916666666667 291.4687323285829 432.4374986666666 291.7916496696662 434.5729173333333 292.2187323465829C436.7083333333333 292.6458176901663 438.8229173333333 293.1666497026663 440.9062506666666 293.8020657179162C442.989584 294.4374817331661 445.0416666666667 295.1666497506663 447.0520826666667 295.9999831039995C449.0625013333333 296.8333164573329 451.0312506666666 297.7708151464996 452.9479173333333 298.7916498376663C454.8749999999999 299.822900529083 456.739584 300.9374818891663 458.5520826666666 302.1458179181663C460.3541653333333 303.3541486138329 462.1041653333333 304.6562339784163 463.7916666666666 306.0312340114163C465.4687493333333 307.4166500446663 467.0833333333333 308.8749834129997 468.6249999999999 310.4166501166663C470.1666666666666 311.958316820333 471.6249999999999 313.5729008590829 473.010416 315.2499835659997C474.385416 316.9374822731662 475.6874986666666 318.6874823151662 476.8958346666666 320.4895676917496C478.1041653333333 322.3020664019163 479.2187493333333 324.1666504466663 480.2499999999999 326.0937331595829C481.2812506666666 328.0103998722496 482.2083333333333 329.9791519194996 483.0416666666666 331.9895679677496C483.8749999999999 333.9999840159997 484.6041653333333 336.0520667319163 485.239584 338.1354001152496C485.8749999999999 340.2187334985829 486.3958346666666 342.333317549333 486.8229173333333 344.468733600583C487.2499999999999 346.604149651833 487.5729173333333 348.7499843699996 487.7812506666666 350.9270670889163C487.9999999999999 353.0937338075829 488.1041653333333 355.2604005262497 488.1041653333333 357.4374832451663C488.1041653333333 359.6145686307496 487.9999999999999 361.7916513496663 487.7812506666666 363.9583180683329C487.5729173333333 366.1249847869997 487.2499999999999 368.2812355054164 486.8229173333333 370.4166515566663C486.3958346666666 372.5520676079163 485.8749999999999 374.6562356584164 485.239584 376.7395690417497C484.6041653333333 378.8333184253329 483.8749999999999 380.8749851409996 483.0416666666666 382.8854011892496C482.2083333333333 384.8958199041663 481.2812506666666 386.8645692847497 480.2499999999999 388.7916519976664C479.2187493333333 390.708318710333 478.1041653333333 392.572902755083 476.8958346666666 394.3854014652497C475.6874986666666 396.197902842083 474.385416 397.947902884083 473.010416 399.6249855909996C471.6249999999999 401.312486964833 470.1666666666666 402.9270683369163 468.6249999999999 404.458319040333C467.0833333333333 405.9999857439997 465.4687493333333 407.468735112583 463.7916666666666 408.843735145583C462.1041653333333 410.2291538454997 460.3541653333333 411.5208178764997 458.5520826666666 412.7291539054997C456.739584 413.947903268083 454.8749999999999 415.062487294833 452.9479173333333 416.083319319333C451.0312506666666 417.1145700107496 449.0625013333333 418.0416526996663 447.0520826666667 418.8749860529997C445.0416666666667 419.708319406333 442.989584 420.4479034240831 440.9062506666666 421.072903439083C438.8229173333333 421.7083194543329 436.7083333333333 422.2395701337497 434.5729173333333 422.6666528106663C432.4374986666666 423.0833194873331 430.2916666666667 423.4062368284164 428.125 423.6249861669997C425.9479173333333 423.833319505333 423.7812506666666 423.9374848411662 421.6041653333333 423.9374848411662L199.9374986666667 423.9374848411662C197.760416 423.9374848411662 195.5833333333333 423.833319505333 193.4166666666666 423.6249861669997C191.25 423.4062368284164 189.0937493333333 423.0833194873331 186.9583333333333 422.6666528106663C184.8229173333333 422.2395701337497 182.7187493333333 421.7083194543329 180.635416 421.072903439083C178.5520826666667 420.4479034240831 176.5 419.708319406333 174.489584 418.8749860529997C172.479168 418.0416526996663 170.510416 417.1145700107496 168.5833333333333 416.083319319333C166.6666666666667 415.062487294833 164.8020826666667 413.947903268083 162.989584 412.7291539054997C161.1770826666667 411.5208178764997 159.4270826666667 410.2291538454997 157.75 408.843735145583C156.0625013333333 407.468735112583 154.4479173333333 405.9999857439997 152.9166666666667 404.458319040333C151.375 402.9270683369163 149.9166666666667 401.312486964833 148.5312506666667 399.6249855909996C147.1458346666667 397.947902884083 145.8541653333333 396.197902842083 144.6458346666667 394.3854014652497C143.4374986666667 392.572902755083 142.3125013333333 390.708318710333 141.2916666666667 388.7916519976664C140.260416 386.8645692847497 139.3333333333333 384.8958199041663 138.5 382.8854011892496C137.6666666666667 380.8749851409996 136.9270826666667 378.8333184253329 136.3020826666667 376.7395690417497C135.6666666666667 374.6562356584164 135.135416 372.5520676079163 134.7083333333333 370.4166515566663C134.2916666666667 368.2812355054164 133.9687493333333 366.1249847869997 133.760416 363.9583180683329C133.5416666666667 361.7916513496663 133.4374986666667 359.6145686307496 133.4374986666667 357.4374832451663C133.4374986666667 355.2604005262497 133.5416666666667 353.0937338075829 133.760416 350.9270670889163C133.9687493333333 348.7499843699996 134.2916666666667 346.604149651833 134.7083333333333 344.468733600583C135.135416 342.333317549333 135.6666666666667 340.2187334985829 136.3020826666667 338.1354001152496C136.9270826666667 336.0520667319163 137.6666666666667 333.9999840159997 138.5 331.9895679677496C139.3333333333333 329.9791519194996 140.260416 328.0103998722496 141.2916666666667 326.0937331595829C142.3125013333333 324.1666504466663 143.4374986666667 322.3020664019163 144.6458346666667 320.4895676917496C145.8541653333333 318.6874823151662 147.1458346666667 316.9374822731662 148.5312506666667 315.2499835659997C149.9166666666667 313.5729008590829 151.375 311.958316820333 152.9166666666667 310.4166501166663C154.4479173333333 308.8749834129997 156.0625013333333 307.4166500446663 157.75 306.0312340114163C159.4270826666667 304.6562339784163 161.1770826666667 303.3541486138329 162.989584 302.1458179181663C164.8020826666667 300.9374818891663 166.6666666666667 299.822900529083 168.5833333333333 298.7916498376663C170.510416 297.7708151464996 172.479168 296.8333164573329 174.489584 295.9999831039995C176.5 295.1666497506663 178.5520826666667 294.4374817331661 180.635416 293.8020657179162C182.7187493333333 293.1666497026663 184.8229173333333 292.6458176901663 186.9583333333333 292.2187323465829C189.0937493333333 291.7916496696662 191.25 291.4687323285829 193.4166666666666 291.2603989902496C195.5833333333333 291.0520656519162 197.760416 290.9374816491662 199.9374986666667 290.9374816491662zM421.6041653333333 290.9374816491662" />
    <glyph glyph-name="footnote-insert"
      unicode="&#xEA0B;"
      horiz-adv-x="1000" d="M375 708.3333333333334H625V625H375V708.3333333333334zM250 541.6666666666667H750V458.3333333333334H250V541.6666666666667zM375 375H625V291.6666666666668H375V375zM708.3333333333333 583.3333333333334H875V541.6666666666667H708.3333333333333V583.3333333333334z" />
    <glyph glyph-name="format-separator-svgrepo-com"
      unicode="&#xEA0C;"
      horiz-adv-x="1000" d="M666.6666666666666 791.6666666666667C689.6791666666666 791.6666666666667 708.3333333333333 810.32125 708.3333333333333 833.3333333333334C708.3333333333333 856.345 689.6791666666666 875 666.6666666666666 875H333.3333333333333C310.32125 875 291.6666666666667 856.345 291.6666666666667 833.3333333333334C291.6666666666667 810.3216666666667 310.32125 791.6666666666667 333.3333333333333 791.6666666666667L666.6666666666666 791.6666666666667zM666.6666666666666 708.3333333333334C689.6791666666666 708.3333333333334 708.3333333333333 689.6783333333333 708.3333333333333 666.6666666666667C708.3333333333333 643.6545833333334 689.6791666666666 625 666.6666666666666 625H333.3333333333333C310.32125 625 291.6666666666667 643.6545833333334 291.6666666666667 666.6666666666667C291.6666666666667 689.6783333333333 310.32125 708.3333333333334 333.3333333333333 708.3333333333334H666.6666666666666zM708.3333333333333 500C708.3333333333333 476.9875 689.6791666666666 458.3333333333334 666.6666666666666 458.3333333333334L333.3333333333333 458.3333333333334C310.32125 458.3333333333334 291.6666666666667 476.9875 291.6666666666667 500C291.6666666666667 523.0125 310.32125 541.6666666666667 333.3333333333333 541.6666666666667L666.6666666666666 541.6666666666667C689.6791666666666 541.6666666666667 708.3333333333333 523.0125 708.3333333333333 500zM666.6666666666666 125C689.6791666666666 125 708.3333333333333 143.6541666666668 708.3333333333333 166.6666666666668C708.3333333333333 189.6791666666667 689.6791666666666 208.3333333333334 666.6666666666666 208.3333333333334L333.3333333333333 208.3333333333334C310.32125 208.3333333333334 291.6666666666667 189.6791666666667 291.6666666666667 166.6666666666668C291.6666666666667 143.6541666666668 310.32125 125 333.3333333333333 125H666.6666666666666zM875 333.3333333333334C875 310.3208333333335 856.3458333333332 291.6666666666668 833.3333333333333 291.6666666666668L166.6666666666667 291.6666666666668C143.655 291.6666666666668 125 310.3208333333335 125 333.3333333333334C125 356.3458333333334 143.655 375 166.6666666666667 375L833.3333333333333 375C856.3458333333332 375 875 356.3458333333334 875 333.3333333333334z" />
    <glyph glyph-name="heading-0-svgrepo-com"
      unicode="&#xEA0D;"
      horiz-adv-x="1000" d="M250 875V125M291.6666666666667 875V125M708.3333333333335 875V125M750.0000000000001 125V875M375 875H166.6666666666667M625.0000000000001 875H833.3333333333335M375 125H166.6666666666667M625 125H833.3333333333335M250 500H750" />
    <glyph glyph-name="heading-cycle"
      unicode="&#xEA0E;"
      horiz-adv-x="1000" d="M125 750H750V666.6666666666667H250V250H333.3333333333333V666.6666666666667H666.6666666666666V750H125zM625 583.3333333333334L791.6666666666666 750M791.6666666666666 583.3333333333334L625 750" />
    <glyph glyph-name="heading-h1-svgrepo-com"
      unicode="&#xEA0F;"
      horiz-adv-x="1000" d="M666.6666666666667 583.3333333333333L791.6666666666667 625L791.6666666666667 208.3333333333333M125 791.6666666666666V500M125 500V208.3333333333333M125 500H458.3333333333334M458.3333333333334 791.6666666666666V500M458.3333333333334 500V208.3333333333333" />
    <glyph glyph-name="heading-h1"
      unicode="&#xEA10;"
      horiz-adv-x="1000" d="M125 791.6666666666667H875V666.6666666666667H125V791.6666666666667zM125 583.3333333333334H875V500H125V583.3333333333334zM125 416.6666666666668H875V333.3333333333334H125V416.6666666666668zM125 250H875V166.6666666666668H125V250z" />
    <glyph glyph-name="heading-h2-svgrepo-com"
      unicode="&#xEA11;"
      horiz-adv-x="1000" d="M625.0000000000001 479.1666666666666V500C625.0000000000001 569.0374999999999 680.9625 625 750 625H757.1500000000002C822.2375 625 874.9833333333335 572.2291666666666 874.9833333333335 507.1416666666667C874.9833333333335 475.8833333333333 862.5833333333334 445.9083333333333 840.4833333333335 423.8083333333333L625.0000000000001 208.3249999999999L875 208.3333333333333M125 791.6666666666666V500M125 500V208.3333333333333M125 500H458.3333333333334M458.3333333333334 791.6666666666666V500M458.3333333333334 500V208.3333333333333" />
    <glyph glyph-name="heading-h2"
      unicode="&#xEA12;"
      horiz-adv-x="1000" d="M125 791.6666666666667H875V687.5H125V791.6666666666667zM125 583.3333333333334H875V500H125V583.3333333333334zM125 416.6666666666668H875V333.3333333333334H125V416.6666666666668zM125 250H875V166.6666666666668H125V250z" />
    <glyph glyph-name="heading-h3-svgrepo-com"
      unicode="&#xEA13;"
      horiz-adv-x="1000" d="M625.0000000000001 625H875L708.3333333333335 458.3333333333333H750C819.0375 458.3333333333333 875 402.3708333333333 875 333.3333333333333C875 264.2958333333333 819.0375 208.3333333333333 750 208.3333333333333C724.1375 208.3333333333333 698.9083333333335 216.3458333333333 677.7958333333333 231.2833333333332C656.6833333333334 246.2208333333333 640.7291666666667 267.3416666666667 632.1208333333334 291.7291666666667M125 791.6666666666666V500M125 500V208.3333333333333M125 500H458.3333333333334M458.3333333333334 791.6666666666666V500M458.3333333333334 500V208.3333333333333" />
    <glyph glyph-name="heading-h3"
      unicode="&#xEA14;"
      horiz-adv-x="1000" d="M125 791.6666666666667H875V708.3333333333334H125V791.6666666666667zM125 583.3333333333334H875V500H125V583.3333333333334zM125 416.6666666666668H875V333.3333333333334H125V416.6666666666668zM125 250H875V166.6666666666668H125V250z" />
    <glyph glyph-name="heading-h4-svgrepo-com"
      unicode="&#xEA15;"
      horiz-adv-x="1000" d="M750 625L645.8333333333335 291.6666666666665H833.3333333333335M833.3333333333335 291.6666666666665H875M833.3333333333335 291.6666666666665V416.6666666666667M833.3333333333335 291.6666666666665V208.3333333333333M125 791.6666666666666V500M125 500V208.3333333333333M125 500H458.3333333333334M458.3333333333334 791.6666666666666V500M458.3333333333334 500V208.3333333333333" />
    <glyph glyph-name="heading-h5-svgrepo-com"
      unicode="&#xEA16;"
      horiz-adv-x="1000" d="M875 625H708.3333333333335L656.25 416.0083333333332C659.5208333333334 419.7166666666667 663.0000000000001 423.2124999999999 666.6666666666667 426.4916666666666C681.2874999999999 439.5666666666666 698.8791666666667 449.1291666666666 718.1083333333333 454.2041666666667C746.9291666666668 461.8083333333333 777.5458333333335 458.8499999999999 804.3875 445.8875C831.2291666666667 432.9208333333334 852.5333333333333 410.775 864.4958333333335 383.4708333333333C876.4583333333335 356.1666666666667 878.2833333333335 325.5 869.6125000000001 296.9791666666668C860.9458333333334 268.4583333333333 842.3541666666666 243.9708333333333 817.2208333333333 227.9375C792.0875000000001 211.9083333333333 762.0625000000001 205.3999999999999 732.5458333333333 209.5666666666665C703.025 213.7291666666668 675.9666666666667 228.2916666666665 656.25 250.65M125 791.6666666666666V500M125 500V208.3333333333333M125 500H458.3333333333334M458.3333333333334 791.6666666666666V500M458.3333333333334 500V208.3333333333333" />
    <glyph glyph-name="heading-h6-svgrepo-com"
      unicode="&#xEA17;"
      horiz-adv-x="1000" d="M641.7666666666668 394.7958333333333C607.25 335.3499999999999 627.7333333333333 259.3374999999999 687.5208333333333 225.0125000000001C747.3083333333335 190.6916666666666 823.7541666666666 211.0583333333332 858.2750000000001 270.5083333333334C892.7916666666667 329.9541666666667 872.3000000000001 405.9541666666667 812.5125 440.275C752.7291666666667 474.5958333333333 676.2874999999999 454.2416666666667 641.7666666666668 394.7958333333333zM641.7666666666668 394.7958333333333L791.6583333333334 666.6666666666666M125 791.6666666666666V500M125 500V208.3333333333333M125 500H458.3333333333334M458.3333333333334 791.6666666666666V500M458.3333333333334 500V208.3333333333333" />
    <glyph glyph-name="heading-toggle"
      unicode="&#xEA18;"
      horiz-adv-x="1000" d="M250 833.3333333333334V166.6666666666668H375V833.3333333333334H250zM500 833.3333333333334V583.3333333333334H625V833.3333333333334H500zM750 833.3333333333334V416.6666666666668H875V833.3333333333334H750z" />
    <glyph glyph-name="horizontal-rule-svgrepo-com"
      unicode="&#xEA19;"
      horiz-adv-x="1000" d="M402 375H453.4375V750H402V586.875H238.8750000000001V750H187.5V375H238.9375V537.875H402.0625V375zM756.25 375H812.5L732.5 539.375C740.6875 543 748.75 547.75 756.8125 553.75A104.125 104.125 0 0 1 793.375 603.5625C797.3750000000001 614.25 799.375 626.3125 799.375 639.8125A110.625 110.625 0 0 1 794.25 674.625A102.75 102.75 0 0 1 780.5 702.5A94 94 0 0 1 761.125 723.8125000000001A116.5 116.5 0 0 1 715.0625 747.1250000000001A90.375 90.375 0 0 1 693.75 750H540V375H591.5V530.125H683.1875L756.25 375zM713.6875 582.5A54.625 54.625 0 0 0 695.3750000000001 579.0625H591.4375V700.8125H695.375A54.375 54.375 0 0 0 731.3749999999999 685.8125A59.75 59.75 0 0 0 750.4999999999998 639.75C750.4999999999998 629.25 748.6874999999998 620.125 745.0624999999998 612.4375A56.875 56.875 0 0 0 713.6249999999998 582.5zM812.5 250H187.5V187.5H812.5V250z" />
    <glyph glyph-name="horizontal-rule"
      unicode="&#xEA1A;"
      horiz-adv-x="1000" d="M208.3333333333333 500A41.6666666666667 41.6666666666667 0 0 1 291.6666666666667 500A41.6666666666667 41.6666666666667 0 0 1 208.3333333333333 500M458.3333333333333 500A41.6666666666667 41.6666666666667 0 0 1 541.6666666666666 500A41.6666666666667 41.6666666666667 0 0 1 458.3333333333333 500M708.3333333333333 500A41.6666666666667 41.6666666666667 0 0 1 791.6666666666666 500A41.6666666666667 41.6666666666667 0 0 1 708.3333333333333 500M83.3333333333333 500H916.6666666666666" />
    <glyph glyph-name="hr-insert"
      unicode="&#xEA1B;"
      horiz-adv-x="1000" d="M125 500H875V416.6666666666668H125V500zM166.6666666666667 458.3333333333334A41.6666666666667 41.6666666666667 0 0 1 250 458.3333333333334A41.6666666666667 41.6666666666667 0 0 1 166.6666666666667 458.3333333333334M458.3333333333333 458.3333333333334A41.6666666666667 41.6666666666667 0 0 1 541.6666666666666 458.3333333333334A41.6666666666667 41.6666666666667 0 0 1 458.3333333333333 458.3333333333334M750 458.3333333333334A41.6666666666667 41.6666666666667 0 0 1 833.3333333333333 458.3333333333334A41.6666666666667 41.6666666666667 0 0 1 750 458.3333333333334" />
    <glyph glyph-name="image-insert"
      unicode="&#xEA1C;"
      horiz-adv-x="1000" d="M291.6666666666667 645.8333333333334A62.5 62.5 0 0 1 416.6666666666667 645.8333333333334A62.5 62.5 0 0 1 291.6666666666667 645.8333333333334" />
    <glyph glyph-name="image-paste-v2"
      unicode="&#xEA1D;"
      horiz-adv-x="1000" d="M375 750H625V666.6666666666667H375V750zM375 583.3333333333334H625V500H375V583.3333333333334zM395.8333333333333 500A20.8333333333333 20.8333333333333 0 0 1 437.5 500A20.8333333333333 20.8333333333333 0 0 1 395.8333333333333 500M458.3333333333333 958.3333333333334V791.6666666666667M541.6666666666666 958.3333333333334V791.6666666666667" />
    <glyph glyph-name="image-paste"
      unicode="&#xEA1E;"
      horiz-adv-x="1000" d="M375 750H625V666.6666666666667H375V750zM375 583.3333333333334H625V500H375V583.3333333333334zM395.8333333333333 500A20.8333333333333 20.8333333333333 0 0 1 437.5 500A20.8333333333333 20.8333333333333 0 0 1 395.8333333333333 500M458.3333333333333 958.3333333333334V791.6666666666667M541.6666666666666 958.3333333333334V791.6666666666667" />
    <glyph glyph-name="image-plus-svgrepo-com"
      unicode="&#xEA1F;"
      horiz-adv-x="1000" d="M594.3625 335.9291666666667L522.8041666666667 406.8916666666666C489.9166666666667 439.5041666666666 473.4708333333334 455.8125 454.5375 461.9291666666666C437.8833333333334 467.3125 419.9583333333334 467.3125 403.3008333333334 461.9291666666666C384.36875 455.8125 367.9237500000001 439.5041666666666 335.0341666666667 406.8916666666666L168.41375 239.0750000000001M594.3625 335.9291666666667L608.5833333333334 350.0374999999999C642.1666666666667 383.3375 658.9541666666668 399.9875 678.2208333333334 406.0625C695.1625000000001 411.4083333333333 713.3666666666668 411.2 730.1833333333334 405.4666666666666C749.3000000000001 398.9458333333334 765.7041666666668 381.9166666666667 798.5083333333334 347.8541666666667L833.3333333333335 312.4958333333334M594.3625 335.9291666666667L759.1666666666667 168.2166666666666M759.1666666666667 168.2166666666666C744.5958333333334 166.6666666666665 725.8875 166.6666666666665 700.0000000000001 166.6666666666665H300.0000000000001C253.32875 166.6666666666665 229.9933333333334 166.6666666666665 212.1675 175.7499999999999C196.4875 183.7375 183.73875 196.4875 175.7495833333334 212.1666666666665C171.9095833333333 219.7041666666667 169.6933333333334 228.2249999999999 168.41375 239.0750000000001M759.1666666666667 168.2166666666666C770.8625 169.4624999999999 779.8958333333335 171.7041666666666 787.8333333333335 175.7499999999999C803.5125 183.7375 816.2625 196.4875 824.2500000000001 212.1666666666665C833.3333333333335 229.9916666666667 833.3333333333335 253.3291666666667 833.3333333333335 299.9999999999999V458.3333333333333M458.3333333333334 833.3333333333333H300.0000000000001C253.32875 833.3333333333333 229.9933333333334 833.3333333333333 212.1675 824.2504166666666C196.4875 816.26125 183.73875 803.5129166666667 175.7495833333334 787.8325C166.6666666666667 770.0066666666667 166.6666666666667 746.6708333333333 166.6666666666667 700V299.9999999999999C166.6666666666667 273.0583333333333 166.6666666666667 253.8916666666666 168.41375 239.0750000000001M750 625V750M750 750V875M750 750H875M750 750H625.0000000000001" />
    <glyph glyph-name="image-square-svgrepo-com"
      unicode="&#xEA20;"
      horiz-adv-x="1000" d="M594.3291666666667 335.9375L524.825 404.8583333333333C491.2875 438.1208333333334 474.5166666666668 454.75 455.275 460.8291666666667C438.3500000000001 466.175 420.1583333333334 465.9791666666666 403.3533333333333 460.2666666666667C384.245 453.7708333333333 367.8391666666667 436.7833333333333 335.0283333333334 402.8083333333334L168.50375 238.3291666666667M594.3291666666667 335.9375L608.5541666666667 350.0416666666667C642.1333333333334 383.3416666666667 658.9208333333333 399.9916666666666 678.1875 406.0708333333334C695.1291666666667 411.4166666666667 713.3333333333335 411.2041666666667 730.15 405.4708333333333C749.2666666666667 398.9541666666667 765.6708333333335 381.9208333333334 798.4749999999999 347.8583333333334L833.3333333333335 312.7749999999999M594.3291666666667 335.9375L761.4583333333333 168.4791666666666M761.4583333333333 168.4791666666666C746.5666666666666 166.6666666666665 727.2625 166.6666666666665 700.0000000000001 166.6666666666665H300.0000000000001C253.32875 166.6666666666665 229.9933333333334 166.6666666666665 212.1675 175.7499999999999C196.4870833333334 183.7375 183.73875 196.4875 175.7495833333334 212.1666666666665C171.9983333333333 219.5291666666665 169.7966666666667 227.8291666666667 168.50375 238.3291666666667M761.4583333333333 168.4791666666666C772.0541666666667 169.7666666666667 780.4208333333333 171.9708333333334 787.8333333333335 175.7499999999999C803.5125 183.7375 816.2625 196.4875 824.2500000000001 212.1666666666665C833.3333333333335 229.9916666666667 833.3333333333335 253.3291666666667 833.3333333333335 299.9999999999999V312.7749999999999M168.50375 238.3291666666667C166.6666666666667 253.2458333333332 166.6666666666667 272.6041666666665 166.6666666666667 299.9999999999999V700C166.6666666666667 746.6708333333333 166.6666666666667 770.0066666666667 175.7495833333334 787.8325C183.73875 803.5129166666667 196.4870833333334 816.26125 212.1675 824.2504166666666C229.9933333333334 833.3333333333333 253.32875 833.3333333333333 300.0000000000001 833.3333333333333H700.0000000000001C746.6708333333333 833.3333333333333 770.0083333333333 833.3333333333333 787.8333333333335 824.2504166666666C803.5125 816.26125 816.2625 803.5129166666667 824.2500000000001 787.8325C833.3333333333335 770.0066666666667 833.3333333333335 746.6708333333333 833.3333333333335 700V312.7749999999999M708.3333333333335 625.0045833333332C708.3333333333335 578.9791666666667 671.0250000000001 541.6708333333333 625.0000000000001 541.6708333333333C578.9750000000001 541.6708333333333 541.6666666666667 578.9791666666667 541.6666666666667 625.0045833333332C541.6666666666667 671.0283333333333 578.9750000000001 708.3379166666666 625.0000000000001 708.3379166666666C671.0250000000001 708.3379166666666 708.3333333333335 671.0283333333333 708.3333333333335 625.0045833333332z" />
    <glyph glyph-name="link-insert"
      unicode="&#xEA21;"
      horiz-adv-x="1000" d="" />
    <glyph glyph-name="lint-fix-v2"
      unicode="&#xEA22;"
      horiz-adv-x="1000" d="M291.6666666666667 666.6666666666667H708.3333333333333V583.3333333333334H291.6666666666667V666.6666666666667zM291.6666666666667 500H625V416.6666666666668H291.6666666666667V500zM291.6666666666667 333.3333333333334H541.6666666666666V250H291.6666666666667V333.3333333333334zM625 750A125 125 0 0 1 875 750A125 125 0 0 1 625 750M687.5 750L729.1666666666666 708.3333333333334L812.5 791.6666666666667" />
    <glyph glyph-name="lint-fix"
      unicode="&#xEA23;"
      horiz-adv-x="1000" d="M291.6666666666667 666.6666666666667H708.3333333333333V583.3333333333334H291.6666666666667V666.6666666666667zM291.6666666666667 500H625V416.6666666666668H291.6666666666667V500zM291.6666666666667 333.3333333333334H541.6666666666666V250H291.6666666666667V333.3333333333334zM625 750A125 125 0 0 1 875 750A125 125 0 0 1 625 750M687.5 750L729.1666666666666 708.3333333333334L812.5 791.6666666666667" />
    <glyph glyph-name="lint-workspace"
      unicode="&#xEA24;"
      horiz-adv-x="1000" d="M808.75 296.25A12.5 12.5 0 0 1 808.75 278.75L828.75 258.7499999999999A12.5 12.5 0 0 1 846.25 258.7499999999999L893.375 305.8749999999999A75 75 0 0 0 794.125 206.6249999999999L707.75 120.2499999999999A26.5 26.5 0 0 0 670.25 157.7499999999998L756.6250000000001 244.1249999999998A75 75 0 0 0 855.8750000000001 343.3749999999998L808.8750000000001 296.3749999999999z" />
    <glyph glyph-name="list-toggle"
      unicode="&#xEA25;"
      horiz-adv-x="1000" d="M166.6666666666667 750A83.3333333333333 83.3333333333333 0 0 1 333.3333333333333 750A83.3333333333333 83.3333333333333 0 0 1 166.6666666666667 750M166.6666666666667 500A83.3333333333333 83.3333333333333 0 0 1 333.3333333333333 500A83.3333333333333 83.3333333333333 0 0 1 166.6666666666667 500M166.6666666666667 250A83.3333333333333 83.3333333333333 0 0 1 333.3333333333333 250A83.3333333333333 83.3333333333333 0 0 1 166.6666666666667 250M458.3333333333333 833.3333333333334H875V750H458.3333333333333V833.3333333333334zM458.3333333333333 583.3333333333334H875V500H458.3333333333333V583.3333333333334zM458.3333333333333 333.3333333333334H875V250H458.3333333333333V333.3333333333334z" />
    <glyph glyph-name="math-block"
      unicode="&#xEA26;"
      horiz-adv-x="1000" d="" />
    <glyph glyph-name="math-inline"
      unicode="&#xEA27;"
      horiz-adv-x="1000" d="" />
    <glyph glyph-name="page-break-svgrepo-com"
      unicode="&#xEA28;"
      horiz-adv-x="1000" d="M62.5 437.5H187.5V375H62.5V437.5zM812.5 437.5H937.5V375H812.5V437.5zM750 312.5V125H250V312.5H187.5V125A62.68125 62.68125 0 0 1 250 62.5H750A62.68125 62.68125 0 0 1 812.5 125V312.5zM250 500V875H500V687.5A62.68125 62.68125 0 0 1 562.5 625H750V500H812.5V687.5A28.4125 28.4125 0 0 1 803.125 709.375L584.375 928.125A28.396875 28.396875 0 0 1 562.5 937.5H250A62.68125 62.68125 0 0 1 187.5 875V500zM562.5 862.5L737.5 687.5H562.5zM312.5 437.5H437.5V375H312.5V437.5zM562.5 437.5H687.5V375H562.5V437.5zM0 1000H1000V0H0V1000z" />
    <glyph glyph-name="paste-svgrepo-com"
      unicode="&#xEA29;"
      horiz-adv-x="1000" d="M500 1000C468.1125 1000 442.8875000000001 994.7621666666666 423.1958333333335 985.03275C416.0208333333334 981.4879166666668 409.19375 977.30525 403.6920833333334 973.8679166666668L399.5983333333334 971.2996666666666C395.4766666666667 968.7082083333333 392.0083333333335 966.52775 388.3670833333333 964.423C378.9433333333334 958.9756666666668 375.3729166666667 958.3961666666665 375.0220833333334 958.3392083333334C374.9929166666667 958.3344583333334 375.0079166666667 958.3392083333334 375.0220833333334 958.3392083333334C328.9983333333334 958.3392083333334 291.6666666666667 921.02375 291.6666666666667 875H250C180.9645833333333 875 125 819.0354166666666 125 750V166.6666666666665C125 97.6291666666666 180.9645833333333 41.6666666666665 250 41.6666666666665H750C819.0375 41.6666666666665 875 97.6291666666666 875 166.6666666666665V750C875 819.0354166666666 819.0375 875 750 875H708.3333333333335C708.3333333333335 921.02375 671.0250000000001 958.3333333333334 625.0000000000001 958.3333333333334C625.0125 958.3333333333334 625.0291666666667 958.32875 625.0000000000001 958.3333333333334C624.6500000000001 958.3902916666668 621.0583333333334 958.9756666666668 611.6333333333333 964.423C607.9916666666667 966.5279166666666 604.525 968.7081666666666 600.4 971.2998333333334L596.3083333333334 973.8679166666668C590.8041666666667 977.30525 583.9791666666666 981.4879166666668 576.8041666666667 985.03275C557.1125 994.7621666666666 531.8875 1000 500 1000zM697.1833333333334 791.6666666666666C682.7750000000002 766.7583333333333 655.8458333333334 750 625.0000000000001 750H375C344.1550000000001 750 317.22375 766.7583333333333 302.815 791.6666666666666H250C226.9883333333334 791.6666666666666 208.3333333333334 773.0116666666667 208.3333333333334 750V166.6666666666665C208.3333333333334 143.6541666666666 226.9883333333334 125 250 125H750C773.0124999999999 125 791.6666666666667 143.6541666666666 791.6666666666667 166.6666666666665V750C791.6666666666667 773.0116666666667 773.0124999999999 791.6666666666666 750 791.6666666666666H697.1833333333334zM460.1083333333333 910.32125C465.1083333333333 912.79125 476.7708333333334 916.6666666666666 500 916.6666666666666C523.2291666666666 916.6666666666666 534.8916666666667 912.79125 539.8916666666667 910.32125C543.0333333333333 908.7695833333333 546.8166666666667 906.5275 552.1500000000001 903.1945833333332L555.2541666666667 901.2466666666666C559.5833333333334 898.5241666666666 564.8041666666668 895.2383333333333 569.9291666666668 892.2754166666666C582.1333333333334 885.22125 601.8041666666668 875 625.0000000000001 875V833.3333333333333H375V875C398.1941666666668 875 417.8666666666667 885.22125 430.0708333333334 892.2754166666666C435.1958333333334 895.2383333333333 440.4166666666668 898.52375 444.7458333333334 901.2466666666666L447.85 903.1945833333332C453.1833333333333 906.5275 456.9666666666667 908.7695833333333 460.1083333333333 910.32125z" />
    <glyph glyph-name="preview-current"
      unicode="&#xEA2A;"
      horiz-adv-x="1000" d="M208.3333333333333 708.3333333333334H333.3333333333333V625H208.3333333333333V708.3333333333334zM208.3333333333333 541.6666666666667H625V458.3333333333334H208.3333333333333V541.6666666666667zM208.3333333333333 375H458.3333333333333V291.6666666666668H208.3333333333333V375zM708.3333333333333 666.6666666666667A41.6666666666667 41.6666666666667 0 0 1 791.6666666666666 666.6666666666667A41.6666666666667 41.6666666666667 0 0 1 708.3333333333333 666.6666666666667M666.6666666666666 375H916.6666666666666V541.6666666666667L833.3333333333333 625L750 541.6666666666667L666.6666666666666 458.3333333333334V375z" />
    <glyph glyph-name="preview-mpe-current"
      unicode="&#xEA2B;"
      horiz-adv-x="1000" d="M208.3333333333333 708.3333333333334H333.3333333333333V625H208.3333333333333V708.3333333333334zM208.3333333333333 541.6666666666667H625V458.3333333333334H208.3333333333333V541.6666666666667zM208.3333333333333 375H458.3333333333333V291.6666666666668H208.3333333333333V375zM708.3333333333333 666.6666666666667A41.6666666666667 41.6666666666667 0 0 1 791.6666666666666 666.6666666666667A41.6666666666667 41.6666666666667 0 0 1 708.3333333333333 666.6666666666667M666.6666666666666 375H916.6666666666666V541.6666666666667L833.3333333333333 625L750 541.6666666666667L666.6666666666666 458.3333333333334V375zM750 770.8333333333334A62.5 62.5 0 0 1 875 770.8333333333334A62.5 62.5 0 0 1 750 770.8333333333334M812.5 812.5V729.1666666666667M770.8333333333333 770.8333333333334H854.1666666666666" />
    <glyph glyph-name="preview-mpe-side"
      unicode="&#xEA2C;"
      horiz-adv-x="1000" d="M208.3333333333333 708.3333333333334H333.3333333333333V625H208.3333333333333V708.3333333333334zM208.3333333333333 541.6666666666667H458.3333333333333V458.3333333333334H208.3333333333333V541.6666666666667zM208.3333333333333 375H333.3333333333333V291.6666666666668H208.3333333333333V375zM666.6666666666666 708.3333333333334H791.6666666666666V375H666.6666666666666V708.3333333333334zM666.6666666666666 770.8333333333334A62.5 62.5 0 0 1 791.6666666666666 770.8333333333334A62.5 62.5 0 0 1 666.6666666666666 770.8333333333334M729.1666666666666 812.5V729.1666666666667M687.5 770.8333333333334H770.8333333333333" />
    <glyph glyph-name="preview-side"
      unicode="&#xEA2D;"
      horiz-adv-x="1000" d="M208.3333333333333 708.3333333333334H333.3333333333333V625H208.3333333333333V708.3333333333334zM208.3333333333333 541.6666666666667H458.3333333333333V458.3333333333334H208.3333333333333V541.6666666666667zM208.3333333333333 375H333.3333333333333V291.6666666666668H208.3333333333333V375zM666.6666666666666 708.3333333333334H791.6666666666666V375H666.6666666666666V708.3333333333334z" />
    <glyph glyph-name="quote-left-solid-svgrepo-com"
      unicode="&#xEA2E;"
      horiz-adv-x="1000" d="M312.5 750C209.35059375 750 125 665.6494062500001 125 562.5L125 250L437.5 250L437.5 562.5L187.5 562.5C187.5 631.8359375 243.1640625 687.5 312.5 687.5zM750 750C646.8505937499999 750 562.5 665.6494062500001 562.5 562.5L562.5 250L875 250L875 562.5L625 562.5C625 631.8359375 680.6640625 687.5 750 687.5zM187.5 500L375 500L375 312.5L187.5 312.5zM625 500L812.5 500L812.5 312.5L625 312.5z" />
    <glyph glyph-name="strike-svgrepo-com"
      unicode="&#xEA2F;"
      horiz-adv-x="1000" d="M6.25 523.4375H689.84375V462.875H6.25V523.4375zM367.59375 585.9375L430.09375 552.71875H181.0625C163.46875 579.09375 152.75 611.3125 152.75 647.4375C151.78125 760.71875 239.65625 837.875 384.1875 837.875C416.40625 837.875 457.4375000000001 833.96875 497.46875 822.25C510.15625 818.34375 519.9375 816.375 531.65625 814.4375C539.46875 791.96875 549.25 738.25 549.25 671.84375C549.25 671.84375 511.15625 668.90625 510.1875000000001 668.90625C493.5937500000001 719.6875 450.6250000000001 791.96875 379.3125000000001 791.96875C312.9062500000001 791.96875 277.7500000000001 749 277.7500000000001 699.1875C277.7500000000001 653.28125 317.7812500000001 612.28125 367.5937500000001 585.90625zM438.875 294.9062500000001C438.875 359.3750000000001 390.03125 403.3125000000001 339.25 433.5937500000001H557.03125C567.78125 410.1562500000001 574.625 382.8125000000001 574.625 350.59375C574.625 227.53125 474.03125 148.4375 322.65625 148.4375C231.84375 148.4375 174.21875 173.84375 153.71875 185.5625C134.1875 208.0312500000001 121.5 279.3125 121.5 347.6875000000001L159.59375 350.6250000000001C179.125 286.1562500000001 246.5 194.3750000000001 331.46875 194.3750000000001C404.71875 194.3750000000001 438.90625 245.1562500000001 438.90625 294.9687500000003z" />
    <glyph glyph-name="table-menu"
      unicode="&#xEA30;"
      horiz-adv-x="1000" d="M125 583.3333333333334H875M500 791.6666666666667V208.3333333333334M333.3333333333333 791.6666666666667V208.3333333333334M666.6666666666666 791.6666666666667V208.3333333333334M208.3333333333333 708.3333333333334H291.6666666666667V625H208.3333333333333V708.3333333333334zM416.6666666666667 708.3333333333334H500V625H416.6666666666667V708.3333333333334zM625 708.3333333333334H708.3333333333333V625H625V708.3333333333334z" />
    <glyph glyph-name="table-of-contents-svgrepo-com"
      unicode="&#xEA31;"
      horiz-adv-x="1000" d="M125 812.5H687.5V750H125V812.5zM125 625H687.5V562.5H125V625zM125 437.5H687.5V375H125V437.5zM125 250H687.5V187.5H125V250zM812.5 812.5H875V750H812.5V812.5zM812.5 625H875V562.5H812.5V625zM812.5 437.5H875V375H812.5V437.5zM812.5 250H875V187.5H812.5V250zM0 1000H1000V0H0V1000z" />
    <glyph glyph-name="table-svgrepo-com"
      unicode="&#xEA32;"
      horiz-adv-x="1000" d="M166.6666666666667 708.3333333333333C166.6666666666667 777.36875 222.63125 833.3333333333333 291.6666666666667 833.3333333333333H500H708.3333333333335C777.3708333333334 833.3333333333333 833.3333333333335 777.36875 833.3333333333335 708.3333333333333V500V291.6666666666665C833.3333333333335 222.6291666666666 777.3708333333334 166.6666666666665 708.3333333333335 166.6666666666665H500H291.6666666666667C222.63125 166.6666666666665 166.6666666666667 222.6291666666666 166.6666666666667 291.6666666666665V500V708.3333333333333zM291.6666666666667 750C268.6550000000001 750 250 731.345 250 708.3333333333333V541.6666666666666H458.3333333333334V750H291.6666666666667zM541.6666666666667 750V541.6666666666666H750V708.3333333333333C750 731.345 731.3458333333334 750 708.3333333333335 750H541.6666666666667zM750 458.3333333333333H541.6666666666667V250H708.3333333333335C731.3458333333334 250 750 268.6541666666666 750 291.6666666666665V458.3333333333333zM458.3333333333334 250V458.3333333333333H250V291.6666666666665C250 268.6541666666666 268.6550000000001 250 291.6666666666667 250H458.3333333333334z" />
    <glyph glyph-name="task-toggle"
      unicode="&#xEA33;"
      horiz-adv-x="1000" d="M458.3333333333333 750H875V666.6666666666667H458.3333333333333V750zM458.3333333333333 500H875V416.6666666666668H458.3333333333333V500zM458.3333333333333 250H875V166.6666666666668H458.3333333333333V250z" />
    <glyph glyph-name="toc-add-numbers"
      unicode="&#xEA34;"
      horiz-adv-x="1000" d="M125 750H875V666.6666666666667H125V750zM333.3333333333333 583.3333333333334H791.6666666666666V500H333.3333333333333V583.3333333333334zM500 416.6666666666668H791.6666666666666V333.3333333333334H500V416.6666666666668zM666.6666666666666 250H791.6666666666666V166.6666666666668H666.6666666666666V250z" />
    <glyph glyph-name="toc-create"
      unicode="&#xEA35;"
      horiz-adv-x="1000" d="M125 750H875V666.6666666666667H125V750zM208.3333333333333 583.3333333333334H791.6666666666666V500H208.3333333333333V583.3333333333334zM291.6666666666667 416.6666666666668H708.3333333333333V333.3333333333334H291.6666666666667V416.6666666666668zM375 250H625V166.6666666666668H375V250zM83.3333333333333 541.6666666666667A41.6666666666667 41.6666666666667 0 0 1 166.6666666666667 541.6666666666667A41.6666666666667 41.6666666666667 0 0 1 83.3333333333333 541.6666666666667M166.6666666666667 375A41.6666666666667 41.6666666666667 0 0 1 250 375A41.6666666666667 41.6666666666667 0 0 1 166.6666666666667 375M250 208.3333333333334A41.6666666666667 41.6666666666667 0 0 1 333.3333333333333 208.3333333333334A41.6666666666667 41.6666666666667 0 0 1 250 208.3333333333334" />
    <glyph glyph-name="toc-remove-numbers"
      unicode="&#xEA36;"
      horiz-adv-x="1000" d="M125 750H875V666.6666666666667H125V750zM208.3333333333333 583.3333333333334H791.6666666666666V500H208.3333333333333V583.3333333333334zM291.6666666666667 416.6666666666668H708.3333333333333V333.3333333333334H291.6666666666667V416.6666666666668zM375 250H625V166.6666666666668H375V250zM83.3333333333333 541.6666666666667A41.6666666666667 41.6666666666667 0 0 1 166.6666666666667 541.6666666666667A41.6666666666667 41.6666666666667 0 0 1 83.3333333333333 541.6666666666667M166.6666666666667 375A41.6666666666667 41.6666666666667 0 0 1 250 375A41.6666666666667 41.6666666666667 0 0 1 166.6666666666667 375M250 208.3333333333334A41.6666666666667 41.6666666666667 0 0 1 333.3333333333333 208.3333333333334A41.6666666666667 41.6666666666667 0 0 1 250 208.3333333333334" />
    <glyph glyph-name="toc-update"
      unicode="&#xEA37;"
      horiz-adv-x="1000" d="M125 750H875V666.6666666666667H125V750zM208.3333333333333 583.3333333333334H791.6666666666666V500H208.3333333333333V583.3333333333334zM291.6666666666667 416.6666666666668H708.3333333333333V333.3333333333334H291.6666666666667V416.6666666666668zM375 250H625V166.6666666666668H375V250zM83.3333333333333 541.6666666666667A41.6666666666667 41.6666666666667 0 0 1 166.6666666666667 541.6666666666667A41.6666666666667 41.6666666666667 0 0 1 83.3333333333333 541.6666666666667M166.6666666666667 375A41.6666666666667 41.6666666666667 0 0 1 250 375A41.6666666666667 41.6666666666667 0 0 1 166.6666666666667 375M250 208.3333333333334A41.6666666666667 41.6666666666667 0 0 1 333.3333333333333 208.3333333333334A41.6666666666667 41.6666666666667 0 0 1 250 208.3333333333334" />
    <glyph glyph-name="toggle-off-outlined-svgrepo-com"
      unicode="&#xEA38;"
      horiz-adv-x="1000" d="M291.6666666666667 583.3333333333333A83.3333333333333 83.3333333333333 0 1 0 208.3333333333334 499.9999999999999A83.3333333333333 83.3333333333333 0 0 0 291.6666666666668 583.3333333333333M708.3333333333335 708.3333333333333A208.3333333333334 208.3333333333334 0 0 0 708.3333333333335 291.6666666666665H291.6666666666667A208.3333333333334 208.3333333333334 0 1 0 291.6666666666667 708.3333333333333H708.3333333333335M291.6666666666667 625A125 125 0 0 1 291.6666666666667 375H708.3333333333335A125 125 0 0 1 708.3333333333335 625z" />
    <glyph glyph-name="Untitled design (1)"
      unicode="&#xEA39;"
      horiz-adv-x="1000" d="M0 952.0729161830832L503.0937493333333 952.0729161830832L503.0937493333333 416.7604020022497L0 416.7604020022497zM0 952.0729161830832M-21.770832 952.0729161830832L456.864584 952.0729161830832C469.0625013333333 952.0729161830832 480.760416 947.2291667335 489.385416 938.6041638598334C498.010416 929.9791663195 502.864584 918.2812487054166 502.864584 906.0729150790831L502.864584 462.7604031062497C502.864584 450.5624881468331 498.010416 438.8645705327497 489.385416 430.2291543254998C480.760416 421.604151451833 469.0625013333333 416.7604020022497 456.864584 416.7604020022497L-21.770832 416.7604020022497C-33.9687493333333 416.7604020022497 -45.6666666666667 421.604151451833 -54.2916666666667 430.2291543254998C-62.9166666666667 438.8645705327497 -67.770832 450.5624881468331 -67.770832 462.7604031062497L-67.770832 906.0729150790831C-67.770832 918.2812487054166 -62.9166666666667 929.9791663195 -54.2916666666667 938.6041638598334C-45.6666666666667 947.2291667335 -33.9687493333333 952.0729161830832 -21.770832 952.0729161830832zM-21.770832 952.0729161830832M0 997.4062506044166L503.0416666666666 997.4062506044166L503.0416666666666 462.093736423583L0 462.093736423583zM0 997.4062506044166M-21.770832 997.4062506044166L456.864584 997.4062506044166C469.0625013333333 997.4062506044166 480.760416 992.5625011548334 489.385416 983.9374982811667C498.010416 975.3125007408335 502.864584 963.61458312675 502.864584 951.4062495004166L502.864584 508.093737527583C502.864584 495.8958225681664 498.010416 484.197904954083 489.385416 475.5624887468331C480.760416 466.9374858731663 469.0625013333333 462.093736423583 456.864584 462.093736423583L-21.770832 462.093736423583C-33.9687493333333 462.093736423583 -45.6666666666667 466.9374858731663 -54.2916666666667 475.5624887468331C-62.9166666666667 484.197904954083 -67.770832 495.8958225681664 -67.770832 508.093737527583L-67.770832 951.4062495004166C-67.770832 963.61458312675 -62.9166666666667 975.3125007408335 -54.2916666666667 983.9374982811667C-45.6666666666667 992.5625011548334 -33.9687493333333 997.4062506044166 -21.770832 997.4062506044166zM-21.770832 997.4062506044166M0 1000H504V461.333320405333H0V1000zM56 983.7291676095L488 983.7291676095L488 437.3333198293331L56 437.3333198293331zM56 983.7291676095M-67.770832 952.0729161830832L503.0937493333333 952.0729161830832L503.0937493333333 416.7604020022497L-67.770832 416.7604020022497zM-67.770832 952.0729161830832M272.375 983.7291676095C254.1979173333333 983.7291676095 239.8229173333333 980.749999538 228.5937493333334 975.1979167380834C224.5 973.1770820229166 220.614584 970.7916659656667 217.479168 968.8333325853334L215.1458346666667 967.374999217C212.7916666666667 965.8958338481668 210.8125013333333 964.6562498184167 208.739584 963.4583324563334C203.375 960.3437483815832 201.3333333333333 960.0208310405 201.135416 959.98958303975C201.114584 959.9791670395 201.125 959.98958303975 201.135416 959.98958303975C174.9062506666667 959.98958303975 153.625 938.7187478625834 153.625 912.4791658995L129.875 912.4791658995C90.520832 912.4791658995 58.625 880.5833304673332 58.625 841.2291641894999L58.625 508.7291562094998C58.625 469.3854032652497 90.520832 437.4791544994997 129.875 437.4791544994997L414.875 437.4791544994997C454.2187493333333 437.4791544994997 486.125 469.3854032652497 486.125 508.7291562094998L486.125 841.2291641894999C486.125 880.5833304673332 454.2187493333333 912.4791658995 414.875 912.4791658995L391.125 912.4791658995C391.125 938.7187478625834 369.8541653333333 959.9791670395 343.625 959.9791670395C343.625 959.9791670395 343.635416 959.9791670395 343.625 959.9791670395C343.4270826666667 960.01041504025 341.375 960.3437483815832 336 963.4583324563334C333.9270826666667 964.6562498184167 331.9479173333333 965.8958338481668 329.6041653333333 967.374999217L327.270832 968.8333325853334C324.135416 970.7916659656667 320.239584 973.1770820229166 316.1458346666667 975.1979167380834C304.9270826666667 980.749999538 290.5520826666667 983.7291676095 272.375 983.7291676095zM384.770832 864.9791647595C376.5520826666667 850.7812470854166 361.2083333333333 841.2291641894999 343.625 841.2291641894999L201.125 841.2291641894999C183.5416666666667 841.2291641894999 168.1874986666667 850.7812470854166 159.979168 864.9791647595L129.875 864.9791647595C116.760416 864.9791647595 106.125 854.3541618378332 106.125 841.2291641894999L106.125 508.7291562094998C106.125 495.6145718947497 116.760416 484.9791556394997 129.875 484.9791556394997L414.875 484.9791556394997C427.989584 484.9791556394997 438.625 495.6145718947497 438.625 508.7291562094998L438.625 841.2291641894999C438.625 854.3541618378332 427.989584 864.9791647595 414.875 864.9791647595zM249.635416 932.61458238275C252.479168 934.0208304165 259.135416 936.2291664695 272.375 936.2291664695C285.614584 936.2291664695 292.260416 934.0208304165 295.114584 932.61458238275C296.9062506666667 931.7291663615 299.0625013333334 930.4583316643332 302.0937493333334 928.5520809519167L303.864584 927.4479155920832C306.3333333333333 925.8958328881666 309.3125013333334 924.0208301764998 312.229168 922.3333314693334C319.1874986666667 918.3124993728334 330.3958346666667 912.4791658995 343.625 912.4791658995L343.625 888.7291653295L201.125 888.7291653295L201.125 912.4791658995C214.3437493333333 912.4791658995 225.5520826666667 918.3124993728334 232.510416 922.3333314693334C235.4374986666667 924.0208301764998 238.4062506666667 925.8958328881666 240.875 927.4479155920832L242.6458346666667 928.5520809519167C245.6874986666667 930.4583316643332 247.8437493333334 931.7291663615 249.635416 932.61458238275zM249.635416 932.61458238275" />
  </font>
</defs>
</svg>
