<svg xmlns="http://www.w3.org/2000/svg" xmlns:xlink="http://www.w3.org/1999/xlink" width="500" zoomAndPan="magnify" viewBox="0 0 375 374.999991" height="500" preserveAspectRatio="xMidYMid meet" version="1.0"><defs><clipPath id="d514ee031f"><path d="M 0 197.816406 L 205.625 197.816406 L 205.625 284.394531 L 0 284.394531 Z M 0 197.816406 " clip-rule="nonzero"/></clipPath><clipPath id="cba4f055c5"><path d="M 17.25 197.816406 L 188.300781 197.816406 C 197.828125 197.816406 205.550781 205.539062 205.550781 215.066406 L 205.550781 267.144531 C 205.550781 276.671875 197.828125 284.394531 188.300781 284.394531 L 17.25 284.394531 C 7.722656 284.394531 0 276.671875 0 267.144531 L 0 215.066406 C 0 205.539062 7.722656 197.816406 17.25 197.816406 Z M 17.25 197.816406 " clip-rule="nonzero"/></clipPath><clipPath id="3788716002"><path d="M 0 0.816406 L 205.625 0.816406 L 205.625 87.394531 L 0 87.394531 Z M 0 0.816406 " clip-rule="nonzero"/></clipPath><clipPath id="f43a6e000e"><path d="M 17.25 0.816406 L 188.300781 0.816406 C 197.828125 0.816406 205.550781 8.539062 205.550781 18.066406 L 205.550781 70.144531 C 205.550781 79.671875 197.828125 87.394531 188.300781 87.394531 L 17.25 87.394531 C 7.722656 87.394531 0 79.671875 0 70.144531 L 0 18.066406 C 0 8.539062 7.722656 0.816406 17.25 0.816406 Z M 17.25 0.816406 " clip-rule="nonzero"/></clipPath><clipPath id="1fbebe779a"><rect x="0" width="206" y="0" height="88"/></clipPath><clipPath id="2c4b2c57f4"><path d="M 17.070312 141.492188 L 216.570312 141.492188 L 216.570312 340.992188 L 17.070312 340.992188 Z M 17.070312 141.492188 " clip-rule="nonzero"/></clipPath><clipPath id="e72d9b82f4"><path d="M 17.070312 164.742188 L 17.070312 317.46875 C 17.070312 330.308594 27.480469 340.71875 40.320312 340.71875 L 193.046875 340.71875 C 205.886719 340.71875 216.296875 330.308594 216.296875 317.46875 L 216.296875 164.742188 C 216.296875 151.902344 205.886719 141.492188 193.046875 141.492188 L 40.320312 141.492188 C 27.480469 141.492188 17.070312 151.902344 17.070312 164.742188 Z M 17.070312 164.742188 " clip-rule="nonzero"/></clipPath><clipPath id="064e23e211"><path d="M 16 58 L 183 58 L 183 142 L 16 142 Z M 16 58 " clip-rule="nonzero"/></clipPath><clipPath id="f5f1d09db9"><path d="M 0.0703125 23.742188 L 0.0703125 176.46875 C 0.0703125 189.308594 10.480469 199.71875 23.320312 199.71875 L 176.046875 199.71875 C 188.886719 199.71875 199.296875 189.308594 199.296875 176.46875 L 199.296875 23.742188 C 199.296875 10.902344 188.886719 0.492188 176.046875 0.492188 L 23.320312 0.492188 C 10.480469 0.492188 0.0703125 10.902344 0.0703125 23.742188 Z M 0.0703125 23.742188 " clip-rule="nonzero"/></clipPath><clipPath id="fe4ce71962"><rect x="0" width="200" y="0" height="200"/></clipPath></defs><path stroke-linecap="round" transform="matrix(14.375, 0, 0, 14.374999, 56.830904, 7.4385)" fill="none" stroke-linejoin="round" d="M 6.000079 2.999931 L 6.000079 20.999932 M 7.000079 2.999931 L 7.000079 20.999932 M 17.000079 2.999931 L 17.000079 20.999932 M 18.000079 20.999932 L 18.000079 2.999931 M 9.000079 2.999931 L 4.000079 2.999931 M 15.000079 2.999931 L 20.000079 2.999931 M 9.000079 20.999932 L 4.000079 20.999932 M 15.000079 20.999932 L 20.000079 20.999932 M 6.000079 11.999931 L 18.000079 11.999931 " stroke="#000000" stroke-width="2" stroke-opacity="1" stroke-miterlimit="4"/><g clip-path="url(#d514ee031f)"><g clip-path="url(#cba4f055c5)"><g transform="matrix(1, 0, 0, 1, 0, 197)"><g clip-path="url(#1fbebe779a)"><g clip-path="url(#3788716002)"><g clip-path="url(#f43a6e000e)"><path fill="#f9fafd" d="M 0 0.816406 L 205.625 0.816406 L 205.625 87.394531 L 0 87.394531 Z M 0 0.816406 " fill-opacity="1" fill-rule="nonzero"/></g></g></g></g></g></g><g clip-path="url(#2c4b2c57f4)"><g clip-path="url(#e72d9b82f4)"><g transform="matrix(1, 0, 0, 1, 17, 141)"><g clip-path="url(#fe4ce71962)"><g clip-path="url(#064e23e211)"><g clip-path="url(#f5f1d09db9)"><path fill="#000000" d="M 141.101562 116.585938 C 140.554688 116.585938 140.011719 116.558594 139.472656 116.503906 C 138.929688 116.453125 138.390625 116.371094 137.859375 116.265625 C 137.324219 116.160156 136.796875 116.027344 136.273438 115.867188 C 135.753906 115.710938 135.242188 115.527344 134.738281 115.320312 C 134.234375 115.109375 133.742188 114.878906 133.265625 114.621094 C 132.785156 114.363281 132.316406 114.085938 131.863281 113.78125 C 131.410156 113.480469 130.976562 113.15625 130.554688 112.8125 C 130.132812 112.464844 129.730469 112.101562 129.34375 111.714844 C 128.960938 111.332031 128.59375 110.925781 128.25 110.507812 C 127.902344 110.085938 127.582031 109.648438 127.277344 109.195312 C 126.976562 108.742188 126.695312 108.277344 126.4375 107.796875 C 126.183594 107.316406 125.949219 106.824219 125.742188 106.320312 C 125.53125 105.820312 125.351562 105.308594 125.191406 104.785156 C 125.035156 104.265625 124.902344 103.738281 124.796875 103.203125 C 124.6875 102.667969 124.609375 102.132812 124.554688 101.589844 C 124.503906 101.046875 124.476562 100.503906 124.476562 99.960938 C 124.476562 99.414062 124.503906 98.871094 124.554688 98.332031 C 124.609375 97.789062 124.6875 97.25 124.796875 96.714844 C 124.902344 96.183594 125.035156 95.65625 125.191406 95.132812 C 125.351562 94.613281 125.53125 94.101562 125.742188 93.597656 C 125.949219 93.09375 126.183594 92.601562 126.4375 92.121094 C 126.695312 91.644531 126.976562 91.175781 127.277344 90.722656 C 127.582031 90.269531 127.902344 89.835938 128.25 89.414062 C 128.59375 88.992188 128.960938 88.589844 129.34375 88.203125 C 129.730469 87.820312 130.132812 87.453125 130.554688 87.109375 C 130.976562 86.761719 131.410156 86.4375 131.863281 86.136719 C 132.316406 85.835938 132.785156 85.554688 133.265625 85.296875 C 133.742188 85.042969 134.234375 84.808594 134.738281 84.601562 C 135.242188 84.390625 135.753906 84.207031 136.273438 84.050781 C 136.796875 83.894531 137.324219 83.761719 137.859375 83.65625 C 138.390625 83.546875 138.929688 83.46875 139.472656 83.414062 C 140.011719 83.363281 140.554688 83.335938 141.101562 83.335938 C 141.644531 83.335938 142.1875 83.363281 142.730469 83.414062 C 143.273438 83.46875 143.808594 83.546875 144.34375 83.65625 C 144.878906 83.761719 145.40625 83.894531 145.925781 84.050781 C 146.449219 84.207031 146.960938 84.390625 147.464844 84.601562 C 147.964844 84.808594 148.457031 85.042969 148.9375 85.296875 C 149.417969 85.554688 149.882812 85.835938 150.335938 86.136719 C 150.789062 86.4375 151.226562 86.761719 151.648438 87.109375 C 152.070312 87.453125 152.472656 87.820312 152.855469 88.203125 C 153.242188 88.589844 153.605469 88.992188 153.953125 89.414062 C 154.296875 89.835938 154.621094 90.269531 154.925781 90.722656 C 155.226562 91.175781 155.507812 91.644531 155.761719 92.121094 C 156.019531 92.601562 156.253906 93.09375 156.460938 93.597656 C 156.667969 94.101562 156.851562 94.613281 157.011719 95.132812 C 157.167969 95.65625 157.300781 96.183594 157.40625 96.714844 C 157.511719 97.25 157.59375 97.789062 157.644531 98.332031 C 157.699219 98.871094 157.726562 99.414062 157.726562 99.960938 C 157.726562 100.503906 157.699219 101.046875 157.644531 101.589844 C 157.59375 102.132812 157.511719 102.667969 157.40625 103.203125 C 157.300781 103.738281 157.167969 104.265625 157.011719 104.785156 C 156.851562 105.308594 156.667969 105.820312 156.460938 106.320312 C 156.253906 106.824219 156.019531 107.316406 155.761719 107.796875 C 155.507812 108.277344 155.226562 108.742188 154.925781 109.195312 C 154.621094 109.648438 154.296875 110.085938 153.953125 110.507812 C 153.605469 110.925781 153.242188 111.332031 152.855469 111.714844 C 152.472656 112.101562 152.070312 112.464844 151.648438 112.8125 C 151.226562 113.15625 150.789062 113.480469 150.335938 113.78125 C 149.882812 114.085938 149.417969 114.363281 148.9375 114.621094 C 148.457031 114.878906 147.964844 115.109375 147.464844 115.320312 C 146.960938 115.527344 146.449219 115.710938 145.925781 115.867188 C 145.40625 116.027344 144.878906 116.160156 144.34375 116.265625 C 143.808594 116.371094 143.273438 116.453125 142.730469 116.503906 C 142.1875 116.558594 141.644531 116.585938 141.101562 116.585938 M 57.976562 141.523438 C 56.613281 141.523438 55.257812 141.457031 53.902344 141.324219 C 52.546875 141.1875 51.203125 140.988281 49.867188 140.722656 C 48.53125 140.457031 47.214844 140.128906 45.910156 139.734375 C 44.609375 139.335938 43.328125 138.878906 42.070312 138.359375 C 40.8125 137.835938 39.582031 137.257812 38.382812 136.613281 C 37.183594 135.972656 36.015625 135.273438 34.886719 134.519531 C 33.753906 133.761719 32.660156 132.953125 31.609375 132.089844 C 30.558594 131.226562 29.550781 130.3125 28.585938 129.347656 C 27.625 128.386719 26.710938 127.378906 25.847656 126.328125 C 24.984375 125.273438 24.175781 124.183594 23.417969 123.050781 C 22.660156 121.917969 21.960938 120.753906 21.320312 119.550781 C 20.679688 118.351562 20.097656 117.121094 19.578125 115.863281 C 19.054688 114.609375 18.597656 113.328125 18.203125 112.023438 C 17.808594 110.722656 17.476562 109.402344 17.210938 108.070312 C 16.945312 106.734375 16.746094 105.386719 16.613281 104.035156 C 16.480469 102.679688 16.414062 101.320312 16.414062 99.960938 C 16.414062 98.597656 16.480469 97.242188 16.613281 95.886719 C 16.746094 94.53125 16.945312 93.1875 17.210938 91.851562 C 17.476562 90.515625 17.808594 89.199219 18.203125 87.894531 C 18.597656 86.59375 19.054688 85.3125 19.578125 84.054688 C 20.097656 82.796875 20.679688 81.566406 21.320312 80.367188 C 21.960938 79.167969 22.660156 78 23.417969 76.867188 C 24.175781 75.738281 24.984375 74.644531 25.847656 73.59375 C 26.710938 72.539062 27.625 71.535156 28.585938 70.570312 C 29.550781 69.609375 30.558594 68.695312 31.609375 67.832031 C 32.660156 66.96875 33.753906 66.160156 34.886719 65.402344 C 36.015625 64.644531 37.183594 63.945312 38.382812 63.304688 C 39.582031 62.664062 40.8125 62.082031 42.070312 61.5625 C 43.328125 61.039062 44.609375 60.582031 45.910156 60.1875 C 47.214844 59.792969 48.53125 59.460938 49.867188 59.195312 C 51.203125 58.929688 52.546875 58.730469 53.902344 58.597656 C 55.257812 58.464844 56.613281 58.398438 57.976562 58.398438 L 141.101562 58.398438 C 142.460938 58.398438 143.820312 58.464844 145.175781 58.597656 C 146.53125 58.730469 147.875 58.929688 149.210938 59.195312 C 150.542969 59.460938 151.863281 59.792969 153.164062 60.1875 C 154.46875 60.582031 155.75 61.039062 157.007812 61.5625 C 158.265625 62.082031 159.492188 62.664062 160.691406 63.304688 C 161.894531 63.945312 163.058594 64.644531 164.191406 65.402344 C 165.324219 66.160156 166.414062 66.96875 167.46875 67.832031 C 168.519531 68.695312 169.527344 69.609375 170.488281 70.570312 C 171.453125 71.535156 172.367188 72.539062 173.230469 73.59375 C 174.09375 74.644531 174.902344 75.738281 175.660156 76.867188 C 176.414062 78 177.113281 79.167969 177.753906 80.367188 C 178.398438 81.566406 178.980469 82.796875 179.5 84.054688 C 180.019531 85.3125 180.480469 86.59375 180.875 87.894531 C 181.269531 89.199219 181.597656 90.515625 181.863281 91.851562 C 182.128906 93.1875 182.328125 94.53125 182.464844 95.886719 C 182.597656 97.242188 182.664062 98.597656 182.664062 99.960938 C 182.664062 101.320312 182.597656 102.679688 182.464844 104.035156 C 182.328125 105.386719 182.128906 106.734375 181.863281 108.070312 C 181.597656 109.402344 181.269531 110.722656 180.875 112.023438 C 180.480469 113.328125 180.019531 114.609375 179.5 115.863281 C 178.980469 117.121094 178.398438 118.351562 177.753906 119.550781 C 177.113281 120.753906 176.414062 121.917969 175.660156 123.050781 C 174.902344 124.183594 174.09375 125.273438 173.230469 126.328125 C 172.367188 127.378906 171.453125 128.386719 170.488281 129.347656 C 169.527344 130.3125 168.519531 131.226562 167.46875 132.089844 C 166.414062 132.953125 165.324219 133.761719 164.191406 134.519531 C 163.058594 135.273438 161.894531 135.972656 160.691406 136.613281 C 159.492188 137.257812 158.265625 137.835938 157.007812 138.359375 C 155.75 138.878906 154.46875 139.335938 153.164062 139.734375 C 151.863281 140.128906 150.542969 140.457031 149.210938 140.722656 C 147.875 140.988281 146.53125 141.1875 145.175781 141.324219 C 143.820312 141.457031 142.460938 141.523438 141.101562 141.523438 L 57.976562 141.523438 M 141.101562 124.898438 C 141.917969 124.898438 142.730469 124.855469 143.546875 124.777344 C 144.359375 124.699219 145.164062 124.578125 145.964844 124.417969 C 146.765625 124.257812 147.558594 124.0625 148.339844 123.824219 C 149.121094 123.585938 149.890625 123.3125 150.644531 123 C 151.398438 122.6875 152.136719 122.335938 152.855469 121.953125 C 153.578125 121.566406 154.277344 121.148438 154.957031 120.695312 C 155.632812 120.242188 156.289062 119.753906 156.921875 119.238281 C 157.550781 118.71875 158.15625 118.171875 158.734375 117.59375 C 159.3125 117.015625 159.859375 116.410156 160.378906 115.78125 C 160.894531 115.148438 161.382812 114.492188 161.835938 113.816406 C 162.289062 113.136719 162.707031 112.4375 163.09375 111.714844 C 163.480469 110.996094 163.828125 110.257812 164.140625 109.503906 C 164.453125 108.75 164.726562 107.980469 164.964844 107.199219 C 165.203125 106.417969 165.398438 105.625 165.558594 104.824219 C 165.71875 104.023438 165.839844 103.21875 165.917969 102.402344 C 166 101.589844 166.039062 100.777344 166.039062 99.960938 C 166.039062 99.144531 166 98.328125 165.917969 97.515625 C 165.839844 96.703125 165.71875 95.894531 165.558594 95.09375 C 165.398438 94.292969 165.203125 93.503906 164.964844 92.722656 C 164.726562 91.9375 164.453125 91.171875 164.140625 90.417969 C 163.828125 89.664062 163.480469 88.925781 163.09375 88.203125 C 162.707031 87.484375 162.289062 86.785156 161.835938 86.105469 C 161.382812 85.425781 160.894531 84.769531 160.378906 84.140625 C 159.859375 83.507812 159.3125 82.902344 158.734375 82.328125 C 158.15625 81.75 157.550781 81.199219 156.921875 80.683594 C 156.289062 80.164062 155.632812 79.679688 154.957031 79.226562 C 154.277344 78.769531 153.578125 78.351562 152.855469 77.96875 C 152.136719 77.582031 151.398438 77.234375 150.644531 76.921875 C 149.890625 76.609375 149.121094 76.332031 148.339844 76.097656 C 147.558594 75.859375 146.765625 75.660156 145.964844 75.5 C 145.164062 75.34375 144.359375 75.222656 143.546875 75.140625 C 142.730469 75.0625 141.917969 75.023438 141.101562 75.023438 L 57.976562 75.023438 C 57.160156 75.023438 56.34375 75.0625 55.53125 75.140625 C 54.71875 75.222656 53.910156 75.34375 53.109375 75.5 C 52.308594 75.660156 51.519531 75.859375 50.738281 76.097656 C 49.957031 76.332031 49.1875 76.609375 48.433594 76.921875 C 47.679688 77.234375 46.941406 77.582031 46.21875 77.96875 C 45.5 78.351562 44.800781 78.769531 44.121094 79.226562 C 43.441406 79.679688 42.785156 80.164062 42.15625 80.683594 C 41.523438 81.199219 40.917969 81.75 40.34375 82.328125 C 39.765625 82.902344 39.21875 83.507812 38.699219 84.140625 C 38.179688 84.769531 37.695312 85.425781 37.242188 86.105469 C 36.789062 86.785156 36.367188 87.484375 35.984375 88.203125 C 35.597656 88.925781 35.25 89.664062 34.9375 90.417969 C 34.625 91.171875 34.347656 91.9375 34.113281 92.722656 C 33.875 93.503906 33.675781 94.292969 33.515625 95.09375 C 33.359375 95.894531 33.238281 96.703125 33.160156 97.515625 C 33.078125 98.328125 33.039062 99.144531 33.039062 99.960938 C 33.039062 100.777344 33.078125 101.589844 33.160156 102.402344 C 33.238281 103.21875 33.359375 104.023438 33.515625 104.824219 C 33.675781 105.625 33.875 106.417969 34.113281 107.199219 C 34.347656 107.980469 34.625 108.75 34.9375 109.503906 C 35.25 110.257812 35.597656 110.996094 35.984375 111.714844 C 36.367188 112.4375 36.789062 113.136719 37.242188 113.816406 C 37.695312 114.492188 38.179688 115.148438 38.699219 115.78125 C 39.21875 116.410156 39.765625 117.015625 40.34375 117.59375 C 40.917969 118.171875 41.523438 118.71875 42.15625 119.238281 C 42.785156 119.753906 43.441406 120.242188 44.121094 120.695312 C 44.800781 121.148438 45.5 121.566406 46.21875 121.953125 C 46.941406 122.335938 47.679688 122.6875 48.433594 123 C 49.1875 123.3125 49.957031 123.585938 50.738281 123.824219 C 51.519531 124.0625 52.308594 124.257812 53.109375 124.417969 C 53.910156 124.578125 54.71875 124.699219 55.53125 124.777344 C 56.34375 124.855469 57.160156 124.898438 57.976562 124.898438 Z M 141.101562 124.898438 " fill-opacity="1" fill-rule="nonzero"/></g></g></g></g></g></g></svg>