<svg width="24" height="24" viewBox="0 0 24 24" fill="none" xmlns="http://www.w3.org/2000/svg">
  <rect x="4" y="4" width="6" height="6" rx="1" fill="none" stroke="currentColor" stroke-width="2"/>
  <rect x="14" y="4" width="6" height="6" rx="1" fill="none" stroke="currentColor" stroke-width="2"/>
  <rect x="4" y="14" width="6" height="6" rx="1" fill="none" stroke="currentColor" stroke-width="2"/>
  <rect x="14" y="14" width="6" height="6" rx="1" fill="none" stroke="currentColor" stroke-width="2"/>
  <path d="M14.7 6.3a1 1 0 0 0 0 1.4l1.6 1.6a1 1 0 0 0 1.4 0l3.77-3.77a6 6 0 0 1-7.94 7.94l-6.91 6.91a2.12 2.12 0 0 1-3-3l6.91-6.91a6 6 0 0 1 7.94-7.94l-3.76 3.76z" fill="currentColor" transform="scale(0.3) translate(50, 50)"/>
</svg>

